<svg xmlns="http://www.w3.org/2000/svg" xmlns:svg="http://www.w3.org/2000/svg" id="svg3386" width="120.4" height="20.938" version="1.1"><metadata id="metadata3396"/><g id="g3795" transform="matrix(0.068322,0,0,0.068322,15.885816,-50.963429)"><path id="path3797" fill="#fc0" d="m 330.36,858.43 43.111,108.06 117.64,9.2572 -89.445,74.392 27.55,114.75 -98.391,-62.079 -100.62,61.66 28.637,-112.76 -89.734,-76.638 116.09,-7.6094 z" transform="translate(-21.071,-112.5)"/></g><g id="g3807" transform="matrix(0.068322,0,0,0.068322,-8.0871839,-50.963429)"><path id="path3809" fill="#fc0" d="m 330.36,858.43 43.111,108.06 117.64,9.2572 -89.445,74.392 27.55,114.75 -98.391,-62.079 -100.62,61.66 28.637,-112.76 -89.734,-76.638 116.09,-7.6094 z" transform="translate(-21.071,-112.5)"/></g><g id="g3897" transform="matrix(0.068322,0,0,0.068322,39.885816,-50.963429)"><path id="path3899" fill="#fc0" d="m 330.36,858.43 43.111,108.06 117.64,9.2572 -89.445,74.392 27.55,114.75 -98.391,-62.079 -100.62,61.66 28.637,-112.76 -89.734,-76.638 116.09,-7.6094 z" transform="translate(-21.071,-112.5)"/></g><g id="g3939" transform="matrix(0.068322,0,0,0.068322,63.885816,-50.963429)"><path id="path3941" fill="#fc0" d="m 330.36,858.43 43.111,108.06 117.64,9.2572 -89.445,74.392 27.55,114.75 -98.391,-62.079 -100.62,61.66 28.637,-112.76 -89.734,-76.638 116.09,-7.6094 z" transform="translate(-21.071,-112.5)"/></g><g id="g3981" transform="matrix(0.068322,0,0,0.068322,87.885816,-50.963429)"><path id="path3983" fill="#fc0" d="m 330.36,858.43 43.111,108.06 117.64,9.2572 -89.445,74.392 27.55,114.75 -98.391,-62.079 -100.62,61.66 28.637,-112.76 -89.734,-76.638 116.09,-7.6094 z" transform="translate(-21.071,-112.5)"/></g></svg>