<svg xmlns="http://www.w3.org/2000/svg" width="16" height="16" version="1.0"><path fill="#9abd4e" d="m2.3496 1.002c-0.1975 0.0382-0.3531 0.2333-0.3496 0.4375v13.122c0.000005 0.22905 0.20608 0.43749 0.43164 0.4375h11.139c0.22556-0.000006 0.43163-0.20845 0.43164-0.4375v-10.143c-0.004-0.06684-0.02269-0.1329-0.05469-0.19141l-3.3125-3.1992c-0.043-0.0164-0.08876-0.025544-0.13477-0.027344h-8.0684c-0.02684-0.0026-0.055194-0.0026-0.082028 2e-7zm1.6504 2.998h2v2h-2zm3 0h5v2h-5zm-3 3h2v2h-2zm3 0h5v2h-5zm-3 3h2v2h-2zm3 0h5v2h-5z" color="#000" style="block-progression:tb;text-transform:none;text-indent:0"/></svg>