<svg xmlns="http://www.w3.org/2000/svg" width="16" height="16" x="0" y="0" enable-background="new -.5 -.5 16 16" overflow="visible" version="1.1" viewBox="-0.5 -0.5 16 16" xml:space="preserve"><path fill="#fff" d="m12.438 3.6875c-0.363 0-0.726 0.1314-1 0.4063l-4.5005 4.5-1.9687-2c-0.5498-0.5484-1.4489-0.5498-2 0l-0.5 0.5c-0.5512 0.5496-0.5512 1.4502 0 2l2.9687 2.9682c0.0063 0.007-0.0065 0.025 0 0.032l0.5 0.5c0.5497 0.55 1.4503 0.55 2 0l0.5-0.5 0.1875-0.219 5.313-5.2812c0.549-0.5498 0.549-1.4503 0-2l-0.5-0.5c-0.275-0.2749-0.638-0.4063-1-0.4063z" transform="translate(-.5 -.5)"/></svg>